@startuml
class users {
    <b>user_id</b> （用户ID）
    name （用户真实姓名）
    github_username （用户GitHub账号）
    update_date （用户GitHub账号修改日期）
    password （用户密码）
    disable （用户是否禁用）
}
class teachers{
    <b>teacher_id</b> （老师工号）
    department （老师所属部门）
    teach_term（授课学期）
    teach_subject（教授课程）
    test_sum （已发布的作业Id集合）
}
class students{
    <b>student_id</b> （学号）
    class_id （班级）
    result_sum（成绩汇总）
    web_sum （网站正确与否汇总）
    learn_term（学习学期）
    learn_subject（学习学科）
}
class classes{
    <b>class_id</b> （班级编号）
    className （班级名称）
    students（学生集合）
    
}
users <|- students
users <|-- teachers
classes "1" -- "n" students
class term{
    <b>term_id</b> （学期号）
    term_date（学期日期）
}
class subject{
    <b>subject_id</b> （学科编号）
    subject_name（学科名称）
}
class grades {
	<b>grades_id</b> （成绩编号）
    <b>student_id</b> （学号）
    <b>test_id</b> （实验编号）
    eachScore（每项得分）
    result_specific （总分数）
    memo （评价）
    update_date （评改日期）
}

class tests {
    <b>test_id</b> （实验编号）
    title (实验名称)
    term_id （学期编号）
    link （实验github链接）
}
students "n" -- "n"term
teachers "n" -- "n" term
term "n" -- "n" subject
subject "1" -- "n" grades
grades "n" -- "1" tests
@enduml